<?xml version="1.0" standalone="no"?>
<!DOCTYPE svg PUBLIC "-//W3C//DTD SVG 20010904//EN"
 "http://www.w3.org/TR/2001/REC-SVG-20010904/DTD/svg10.dtd">
<svg version="1.0" xmlns="http://www.w3.org/2000/svg"
 width="600.000000pt" height="400.000000pt" viewBox="0 0 600.000000 400.000000"
 preserveAspectRatio="xMidYMid meet">

<g transform="translate(0.000000,400.000000) scale(0.100000,-0.100000)"
fill="#000000" stroke="none">
<path d="M2089 3901 c-20 -10 -63 -37 -95 -59 -38 -27 -78 -45 -114 -52 -30
-6 -78 -18 -106 -26 -28 -8 -57 -14 -65 -14 -9 0 -25 -14 -38 -31 -20 -27 -22
-38 -16 -92 4 -34 13 -71 19 -82 12 -19 33 -81 70 -207 11 -38 27 -66 48 -85
114 -100 135 -127 142 -178 14 -94 17 -110 25 -140 5 -19 3 -43 -5 -67 -7 -21
-11 -38 -7 -38 3 0 0 -7 -7 -15 -6 -8 -9 -18 -6 -24 3 -5 -2 -12 -11 -15 -11
-5 -13 -10 -6 -17 7 -7 9 -37 6 -76 -7 -90 17 -172 65 -222 7 -7 11 -20 8 -27
-3 -7 -1 -16 4 -19 6 -4 10 -11 10 -16 0 -6 -6 -7 -12 -3 -10 6 -10 4 0 -8 10
-13 9 -16 -10 -21 -12 -4 -19 -9 -15 -13 4 -4 2 -13 -4 -21 -8 -9 -8 -17 -2
-25 6 -7 9 -21 8 -30 -2 -11 3 -18 13 -18 27 0 0 -18 -33 -22 l-30 -4 28 -12
c31 -13 35 -27 10 -37 -17 -6 -17 -7 -1 -16 19 -10 15 -36 -9 -55 -19 -16 -6
-44 21 -44 19 0 18 -3 -11 -25 -33 -26 -44 -58 -47 -130 -1 -22 -5 -46 -10
-53 -5 -8 -2 -20 6 -30 8 -9 15 -30 16 -47 1 -16 11 -41 22 -55 31 -38 51 -87
43 -107 -4 -10 -16 -34 -28 -53 -83 -135 -148 -281 -224 -503 -82 -242 -109
-368 -121 -572 -5 -82 -18 -202 -29 -265 -12 -63 -21 -141 -21 -172 l0 -58
169 0 170 0 -34 65 c-19 36 -32 72 -29 80 4 8 2 15 -4 15 -5 0 -13 23 -16 52
-4 28 -10 57 -14 62 -3 6 -7 31 -8 56 -1 25 -3 47 -4 50 -1 3 -1 16 0 29 1 14
-2 21 -9 17 -14 -9 -14 9 -1 35 8 13 7 19 0 19 -21 0 -2 137 24 179 28 43 93
73 141 64 28 -6 54 15 34 28 -6 3 -4 11 6 19 13 11 15 10 9 -4 -8 -21 5 -20
36 3 22 18 25 18 36 3 11 -14 16 -15 33 -4 60 35 64 37 68 26 3 -8 15 -7 44 2
22 8 45 12 50 8 5 -3 16 0 24 6 10 9 15 9 15 1 0 -7 8 -8 26 0 15 5 29 7 32 5
2 -3 12 -1 22 4 13 7 27 1 60 -27 30 -26 44 -33 50 -24 6 10 12 10 29 0 11 -8
21 -17 21 -22 0 -4 4 -6 9 -2 5 3 12 -4 16 -15 3 -11 10 -20 15 -20 4 0 13
-14 19 -30 5 -17 15 -30 20 -30 15 0 14 43 -1 58 -16 16 4 38 61 66 46 23 124
39 136 28 3 -4 22 -7 41 -8 41 -1 44 16 14 76 -11 22 -20 47 -20 57 0 10 -9
26 -20 36 -25 21 -27 87 -5 167 10 36 17 121 20 245 4 185 4 191 -20 243 -14
29 -29 51 -34 48 -5 -4 -18 5 -29 19 -11 14 -24 25 -30 25 -5 0 -12 9 -15 21
-3 12 -10 18 -16 14 -6 -3 -14 1 -17 10 -4 9 -13 14 -20 11 -8 -3 -14 -1 -14
4 0 6 -3 9 -7 9 -38 -6 -46 48 -13 81 11 11 20 29 20 41 0 18 2 19 15 6 16
-17 58 -11 52 7 -2 6 -43 21 -91 34 -49 13 -95 29 -103 37 -8 8 -19 15 -24 15
-5 0 -9 6 -9 14 0 21 -21 25 -63 10 -41 -15 -67 -8 -97 25 -25 27 -60 97 -61
122 0 13 -8 36 -17 51 -52 83 -60 97 -51 100 6 2 4 22 -6 51 -13 38 -14 52 -5
63 7 7 16 12 20 9 5 -3 13 10 19 28 l11 32 -30 -35 c-29 -33 -30 -33 -45 -15
-19 27 -19 32 6 45 16 9 18 14 8 26 -6 8 -18 14 -25 14 -8 0 -14 6 -14 14 0 8
-9 30 -19 48 -25 42 -45 137 -46 213 0 44 6 73 24 108 27 56 44 51 31 -8 -11
-50 -7 -141 9 -178 9 -24 14 -26 31 -17 11 6 20 15 20 20 0 6 7 10 15 10 9 0
41 13 71 30 31 16 60 27 65 25 4 -3 11 0 16 7 15 24 45 42 72 44 63 3 85 6 74
10 -7 3 -2 14 13 31 13 14 24 32 24 39 0 52 61 95 97 69 30 -24 78 -19 91 9 6
13 8 33 5 45 -3 11 -2 29 2 38 6 16 8 15 16 -6 7 -17 6 -27 -2 -32 -19 -12 30
-32 63 -25 44 9 102 -25 134 -79 21 -36 30 -44 46 -39 13 4 27 -2 42 -18 43
-45 78 -70 119 -84 23 -8 58 -25 77 -38 19 -13 45 -27 57 -30 19 -6 22 -2 28
35 6 37 0 131 -11 170 -6 20 31 32 45 15 5 -6 19 -38 32 -70 18 -50 21 -71 15
-135 -6 -79 -15 -109 -58 -201 -24 -50 -68 -204 -68 -236 0 -8 -21 -46 -47
-86 -27 -40 -50 -78 -53 -85 -3 -6 -29 -36 -57 -67 -29 -31 -53 -60 -53 -64 0
-21 -233 -103 -297 -105 -20 -1 -15 -12 16 -34 50 -38 159 -203 146 -223 -3
-5 1 -23 10 -39 17 -33 20 -55 6 -47 -5 3 -12 -1 -15 -10 -3 -9 -12 -14 -20
-11 -23 9 -29 -66 -10 -121 21 -61 24 -309 4 -364 -11 -30 -12 -56 -2 -133 11
-95 22 -125 47 -125 8 0 19 -16 25 -35 6 -19 16 -35 21 -35 5 0 18 -9 29 -20
36 -36 140 -49 298 -36 93 7 106 2 162 -69 16 -20 32 -37 37 -38 11 -2 30 -60
39 -121 9 -69 7 -201 -5 -223 -21 -41 -40 -90 -46 -125 -4 -20 -15 -44 -26
-54 -10 -9 -16 -21 -12 -26 3 -6 -1 -14 -8 -19 -9 -6 16 -8 65 -7 95 4 88 -10
106 198 22 252 0 396 -101 690 -34 96 -80 234 -104 305 -23 72 -51 150 -62
175 -11 25 -25 70 -32 101 -13 54 -13 58 14 110 33 65 37 151 8 180 -12 12 -6
39 11 51 8 6 8 8 0 8 -6 0 -9 10 -7 24 3 13 -3 36 -12 50 -15 22 -15 29 -4 42
11 13 10 17 -4 25 -23 13 -40 47 -43 86 -2 28 4 38 37 65 21 17 39 37 39 45 0
7 4 13 10 13 8 0 67 115 75 145 1 6 5 17 8 25 14 38 23 100 22 153 0 31 3 57
6 57 4 0 6 16 5 35 -2 21 1 35 8 35 8 0 8 2 0 8 -12 8 -13 15 -14 129 0 46 6
101 14 125 8 24 19 66 24 94 5 28 14 58 20 65 60 75 88 100 122 109 30 8 45
21 68 58 16 26 32 67 36 91 4 25 20 70 36 100 39 74 60 135 66 196 5 45 3 52
-23 76 -30 29 -136 69 -181 69 -27 0 -122 44 -209 96 -51 30 -111 34 -181 10
-37 -12 -185 -105 -210 -132 -13 -13 -27 -24 -32 -24 -5 0 -12 -11 -16 -25 -3
-13 -12 -29 -19 -35 -24 -20 -283 -24 -372 -6 -43 8 -91 17 -108 18 -24 2 -31
9 -35 30 -5 28 -87 119 -156 174 -93 74 -180 93 -255 55z m150 -161 c17 0 8
-40 -11 -46 -16 -5 -18 -8 -7 -15 10 -6 4 -9 -18 -9 -26 0 -33 4 -33 19 0 26
54 87 58 66 2 -8 7 -15 11 -15z m-326 -294 c9 -7 17 -19 17 -25 0 -20 -41 -8
-58 17 -13 20 -13 22 4 22 11 0 27 -7 37 -14z m1887 0 c0 -2 -7 -7 -16 -10 -8
-3 -12 -2 -9 4 6 10 25 14 25 6z m-2020 -47 c0 -5 -4 -9 -10 -9 -5 0 -10 7
-10 16 0 8 5 12 10 9 6 -3 10 -10 10 -16z m100 -9 c16 -17 29 -34 29 -38 1 -4
8 -15 16 -25 19 -21 19 -25 1 -43 -23 -23 -39 -17 -89 33 -45 44 -57 63 -38
63 5 0 11 9 14 20 7 29 35 25 67 -10z m1150 -60 c62 -31 68 -38 49 -57 -5 -5
-18 -25 -27 -43 -9 -19 -26 -38 -37 -44 -11 -6 -32 -21 -48 -33 -37 -30 -73
-15 -104 44 -10 19 -9 33 3 74 28 95 66 109 164 59z m-437 -18 c22 -38 31
-106 17 -133 -17 -31 -48 -42 -80 -29 -16 7 -31 18 -34 26 -3 8 -12 14 -19 14
-8 0 -23 11 -33 25 -10 14 -24 25 -31 25 -7 0 -13 5 -13 10 0 6 -7 10 -15 10
-22 0 -18 13 8 29 109 70 169 77 200 23z m1112 -48 c14 -14 14 -19 3 -30 -21
-21 -101 -29 -119 -12 -8 8 -21 17 -29 21 -8 3 -2 6 15 6 22 1 26 4 15 10 -10
7 -1 11 30 14 25 2 50 4 57 5 6 1 19 -5 28 -14z m-551 -14 c41 -15 66 -47 65
-82 0 -18 -3 -27 -6 -20 -6 15 -75 52 -98 52 -8 0 -15 5 -15 10 0 6 6 10 13
10 8 0 14 6 14 14 0 11 -6 12 -24 5 -23 -9 -34 5 -10 14 19 8 34 8 61 -3z
m-777 -16 c2 -7 -9 -11 -32 -10 -31 1 -33 2 -18 14 20 14 45 12 50 -4z m-51
-44 c-45 -23 -46 -23 -46 -12 0 12 40 31 65 31 13 0 7 -7 -19 -19z m759 -50
c3 -5 1 -10 -4 -10 -6 0 -11 5 -11 10 0 6 2 10 4 10 3 0 8 -4 11 -10z m45 0
c0 -5 -7 -10 -15 -10 -8 0 -15 5 -15 10 0 6 7 10 15 10 8 0 15 -4 15 -10z
m-700 -10 c0 -5 -16 -10 -36 -10 -21 0 -33 4 -29 10 3 6 19 10 36 10 16 0 29
-4 29 -10z m735 -10 c3 -6 -4 -24 -16 -41 -19 -27 -26 -30 -56 -26 -44 7 -63
23 -62 51 0 21 0 21 9 -1 13 -31 55 -40 80 -18 11 10 20 24 20 32 0 15 16 17
25 3z m-823 -35 c4 -20 3 -23 -8 -14 -16 13 -19 39 -5 39 5 0 11 -11 13 -25z
m672 -1 c3 -8 2 -12 -4 -9 -6 3 -10 10 -10 16 0 14 7 11 14 -7z m246 -25 c11
-19 -9 -78 -32 -96 -23 -18 -57 -22 -68 -7 -15 17 -4 49 34 100 32 43 45 44
66 3z m-980 -30 c23 -43 8 -55 -23 -19 -9 11 -14 20 -11 20 4 0 1 7 -6 15 -13
15 -5 39 11 29 5 -3 18 -23 29 -45z m795 -130 c11 -17 -1 -21 -15 -4 -8 9 -8
15 -2 15 6 0 14 -5 17 -11z"/>
<path d="M2475 3210 c3 -5 8 -10 11 -10 2 0 4 5 4 10 0 6 -5 10 -11 10 -5 0
-7 -4 -4 -10z"/>
<path d="M2779 2855 c-3 -3 -34 -5 -70 -6 -69 -1 -137 -27 -158 -61 -16 -26
-15 -144 2 -191 7 -20 16 -35 19 -31 12 11 19 -36 9 -55 -14 -25 -14 -61 -1
-61 11 0 14 -30 3 -31 -5 0 -19 -2 -33 -4 -14 -3 -44 -2 -66 1 -34 4 -47 12
-68 43 -18 25 -24 44 -20 56 5 13 4 16 -4 11 -7 -4 -12 -3 -12 2 0 6 7 13 16
16 14 5 14 9 3 22 -11 14 -10 18 5 29 10 8 16 18 13 22 -9 14 15 96 36 125 11
14 16 31 13 37 -4 6 -3 11 3 11 6 0 8 7 5 15 -4 8 -17 15 -30 15 -24 0 -32
-14 -14 -25 6 -3 10 -16 9 -28 0 -12 -3 -16 -6 -9 -9 22 -23 13 -14 -10 17
-49 -19 -107 -69 -109 l-35 -2 35 -6 35 -7 -34 -8 c-21 -5 -29 -11 -21 -16 8
-5 6 -9 -8 -12 -16 -5 -19 -13 -18 -49 1 -24 5 -50 10 -57 4 -7 5 -25 2 -38
-4 -14 -3 -24 1 -21 10 6 34 -19 26 -27 -3 -3 0 -12 6 -20 7 -8 10 -20 6 -26
-3 -5 1 -13 10 -16 9 -4 14 -13 11 -20 -3 -8 -2 -14 2 -14 7 0 24 -27 37 -60
4 -8 26 -30 51 -49 33 -25 46 -44 54 -75 21 -79 31 -94 77 -116 31 -14 66 -21
116 -22 89 -1 140 13 195 53 37 27 42 35 42 70 0 26 -4 38 -11 34 -6 -4 -8 -9
-5 -12 3 -3 -20 -19 -52 -34 -49 -25 -58 -27 -71 -14 -13 13 -13 17 2 33 9 10
14 21 11 25 -4 3 5 9 20 13 14 3 26 10 26 16 0 5 5 6 10 3 6 -3 10 2 10 11 0
10 8 26 17 36 21 24 25 44 14 85 -7 24 -5 35 5 44 8 6 14 18 14 26 0 16 -87
56 -107 49 -7 -3 -13 1 -13 10 0 8 5 12 10 9 6 -3 10 0 10 8 0 8 6 14 14 13
23 -2 21 18 -3 30 -33 17 -34 20 -4 52 81 87 100 151 70 224 -19 46 -119 113
-138 93z m56 -95 c3 -6 -4 -10 -17 -10 -18 0 -20 2 -8 10 19 12 18 12 25 0z
m45 -150 c-8 -6 -22 -10 -30 -10 -8 0 -4 6 10 13 27 15 44 12 20 -3z m-500
-29 c0 -14 -18 -23 -30 -16 -6 4 -8 11 -5 16 8 12 35 12 35 0z m170 -333 c0
16 186 17 195 1 4 -6 13 -8 20 -5 17 6 50 -23 57 -52 6 -23 -20 -61 -31 -45
-3 5 -14 12 -23 16 -16 6 -18 -1 -18 -58 0 -63 -1 -65 -26 -65 -14 0 -23 4
-19 10 3 6 2 10 -4 10 -5 0 -17 8 -27 18 -10 9 -21 17 -26 17 -5 0 -13 7 -18
15 -5 8 -10 12 -10 8 0 -4 -14 -2 -30 4 -19 6 -40 26 -55 52 -25 43 -33 82
-15 71 6 -3 10 0 10 7 0 9 3 9 10 -2 6 -10 10 -11 10 -2z"/>
<path d="M2458 2833 c7 -3 16 -2 19 1 4 3 -2 6 -13 5 -11 0 -14 -3 -6 -6z"/>
<path d="M3134 2505 c3 -9 2 -13 -4 -10 -5 3 -16 -6 -25 -19 -15 -22 -15 -27
-2 -47 15 -20 16 -20 36 26 25 57 25 51 5 59 -12 5 -15 2 -10 -9z"/>
<path d="M2186 2484 c-10 -25 -1 -27 19 -4 15 17 16 20 3 20 -9 0 -19 -7 -22
-16z"/>
<path d="M2216 2413 c-6 -14 -5 -15 5 -6 7 7 10 15 7 18 -3 3 -9 -2 -12 -12z"/>
<path d="M3062 2418 c-7 -7 -12 -18 -12 -25 0 -7 -5 -12 -12 -10 -6 1 -16 -7
-22 -19 -6 -11 -17 -19 -24 -16 -7 2 -12 -5 -12 -17 0 -12 6 -20 13 -18 16 3
11 -31 -13 -78 -11 -21 -18 -41 -15 -43 7 -8 53 34 91 84 21 27 44 55 51 62
10 11 10 19 -2 49 -8 19 -15 37 -15 39 0 8 -17 3 -28 -8z m-20 -84 c-7 -12
-11 -13 -17 -4 -4 7 -2 16 6 21 18 11 23 4 11 -17z"/>
</g>
</svg>
